<svg width="40" height="40" viewBox="0 0 40 40" fill="none" xmlns="http://www.w3.org/2000/svg">
<path d="M39.5 20C39.5 30.7696 30.7696 39.5 20 39.5C9.23045 39.5 0.5 30.7696 0.5 20C0.5 9.23045 9.23045 0.5 20 0.5C30.7696 0.5 39.5 9.23045 39.5 20Z" stroke="#D9DADB"/>
<path fill-rule="evenodd" clip-rule="evenodd" d="M12 22C10.8954 22 10 21.1046 10 20C10 18.8954 10.8954 18 12 18C13.1046 18 14 18.8954 14 20C14 21.1046 13.1046 22 12 22ZM20 22C18.8954 22 18 21.1046 18 20C18 18.8954 18.8954 18 20 18C21.1046 18 22 18.8954 22 20C22 21.1046 21.1046 22 20 22ZM28 22C26.8954 22 26 21.1046 26 20C26 18.8954 26.8954 18 28 18C29.1046 18 30 18.8954 30 20C30 21.1046 29.1046 22 28 22Z" fill="#BCBFC2"/>
</svg>
