<svg width="15" height="10" viewBox="0 0 15 10" fill="none" xmlns="http://www.w3.org/2000/svg">
<path fill-rule="evenodd" clip-rule="evenodd" d="M15 4.63696C15 4.63696 12 9.75 7.5 9.75C3 9.75 0 4.63696 0 4.63696C0 4.63696 3 0 7.5 0C12 0 15 4.63696 15 4.63696ZM7.5 2.25C8.94707 2.25 10.125 3.42825 10.125 4.87582C10.125 6.32257 8.94707 7.5 7.5 7.5C6.05293 7.5 4.875 6.32585 4.875 4.87582C4.875 3.42825 6.05293 2.25 7.5 2.25ZM7.49858 6.18785C8.22277 6.18785 8.80965 5.59681 8.80965 4.8717C8.80965 4.14604 8.22222 3.555 7.49858 3.555C6.77549 3.555 6.1875 4.14439 6.1875 4.8706C6.1875 5.59681 6.77549 6.18785 7.49858 6.18785Z" fill="#BCBFC2"/>
</svg>
