<svg width="18" height="16" viewBox="0 0 18 16" fill="none" xmlns="http://www.w3.org/2000/svg">
<path fill-rule="evenodd" clip-rule="evenodd" d="M16.1187 1.94706C15.2268 0.949161 14.041 0.400024 12.7794 0.400024C11.5178 0.400024 10.459 0.949161 9.56667 1.94706L8.99997 2.85223L8.43333 1.94706C7.5413 0.949161 6.48219 0.400024 5.22076 0.400024C3.95938 0.400024 2.7731 0.949161 1.88115 1.94706C0.0396161 4.00735 0.0396161 7.35953 1.88115 9.41902L8.47989 15.7609C8.58778 15.8821 8.72209 15.9563 8.86242 15.9848C8.90948 15.9952 8.95681 16 9.00423 16C9.1909 16 9.37789 15.9204 9.52005 15.7609L16.1188 9.41902C17.9604 7.35953 17.9604 4.00735 16.1187 1.94706Z" fill="white"/>
</svg>
