<svg width="20" height="20" viewBox="0 0 20 20" fill="none" xmlns="http://www.w3.org/2000/svg">
<path fill-rule="evenodd" clip-rule="evenodd" d="M18 16.6316C16.3675 18.2105 13.7008 19 10 19C6.29917 19 3.63251 18.2105 2 16.6316C2 13.3481 3.90591 10.9832 6.70588 10C7.60059 10.4169 8.59455 11 10 11C11.4054 11 12.3311 10.3926 13.2941 10C16.0575 10.9965 18 13.3748 18 16.6316ZM10 9C7.79086 9 6 7.20914 6 5C6 2.79086 7.79086 1 10 1C12.2091 1 14 2.79086 14 5C14 7.20914 12.2091 9 10 9Z" fill="#BCBFC2"/>
</svg>
