<svg width="50" height="50" viewBox="0 0 50 50" fill="none" xmlns="http://www.w3.org/2000/svg">
<path opacity="0.4" fill-rule="evenodd" clip-rule="evenodd" d="M25 49.9995C11.1929 49.9995 0 38.8066 0 24.9995C0 11.1924 11.1929 -0.000488281 25 -0.000488281C38.8071 -0.000488281 50 11.1924 50 24.9995C50 38.8066 38.8071 49.9995 25 49.9995ZM25 47.4995C37.4264 47.4995 47.5 37.4259 47.5 24.9995C47.5 12.5731 37.4264 2.49951 25 2.49951C12.5736 2.49951 2.5 12.5731 2.5 24.9995C2.5 37.4259 12.5736 47.4995 25 47.4995Z" fill="white"/>
<path fill-rule="evenodd" clip-rule="evenodd" d="M20.4999 30.9231V19.0759C20.4999 18.6195 20.8829 18.2495 21.3554 18.2495C21.5194 18.2495 21.68 18.2951 21.818 18.3808L31.357 24.3043C31.7544 24.5511 31.8695 25.0624 31.614 25.4463C31.5477 25.5459 31.4601 25.6306 31.357 25.6946L21.818 31.6182C21.4206 31.865 20.8913 31.7538 20.6358 31.3699C20.5471 31.2366 20.4999 31.0815 20.4999 30.9231Z" fill="white"/>
</svg>
