<svg width="18" height="20" viewBox="0 0 18 20" fill="none" xmlns="http://www.w3.org/2000/svg">
<path fill-rule="evenodd" clip-rule="evenodd" d="M8.00002 14C5.79088 14 4.00002 12.2091 4.00002 10C4.00002 7.79086 5.79088 6 8.00002 6C10.2092 6 12 7.79086 12 10C12 12.2091 10.2092 14 8.00002 14ZM0.928955 17.0711L2.34317 15.6569C3.79088 17.1046 5.79088 18 8.00002 18C12.4183 18 16 14.4183 16 10C16 5.58172 12.4183 2 8.00002 2V0C13.5229 0 18 4.47715 18 10C18 15.5228 13.5229 20 8.00002 20C5.2386 20 2.7386 18.8807 0.928955 17.0711Z" fill="red"/>
</svg>
