<svg width="40" height="40" viewBox="0 0 40 40" fill="none" xmlns="http://www.w3.org/2000/svg">
<path d="M39.5 20C39.5 30.7696 30.7696 39.5 20 39.5C9.23045 39.5 0.5 30.7696 0.5 20C0.5 9.23045 9.23045 0.5 20 0.5C30.7696 0.5 39.5 9.23045 39.5 20Z" stroke="#D9DADB"/>
<path fill-rule="evenodd" clip-rule="evenodd" d="M28.979 14.363C28.9532 14.3323 28.9106 14.3218 28.8743 14.3386C28.3361 14.5796 27.77 14.7528 27.1869 14.8552C27.8059 14.3851 28.2672 13.7342 28.5037 12.9877C28.5151 12.952 28.5033 12.9129 28.4744 12.8897C28.4453 12.8664 28.4049 12.8634 28.373 12.8826C27.6758 13.3 26.9206 13.5942 26.1276 13.7574C25.4248 13.0212 24.4435 12.6001 23.4278 12.6001C21.3623 12.6001 19.6821 14.2962 19.6821 16.381C19.6821 16.6331 19.7063 16.8828 19.7542 17.1253C16.8934 16.9471 14.2184 15.5607 12.3995 13.3087C12.3809 13.2857 12.3527 13.2728 12.3232 13.2758C12.2939 13.278 12.2677 13.2948 12.2529 13.3203C11.9211 13.8949 11.7458 14.5524 11.7458 15.2212C11.7458 16.3804 12.2675 17.4642 13.1559 18.1794C12.6985 18.1239 12.2518 17.9786 11.849 17.7528C11.8219 17.7374 11.7882 17.7376 11.7611 17.7534C11.734 17.769 11.7168 17.7981 11.7161 17.8297L11.7157 17.8781C11.7157 19.5429 12.8025 21.0046 14.3487 21.49C13.9415 21.5562 13.5189 21.5517 13.1036 21.4717C13.073 21.466 13.0409 21.4766 13.0199 21.5004C12.999 21.5242 12.992 21.5575 13.0016 21.5877C13.4653 23.0485 14.7535 24.0729 16.2531 24.2006C15.0022 25.1257 13.5237 25.613 11.9615 25.613C11.6737 25.613 11.3839 25.5957 11.1 25.5621C11.0594 25.5574 11.0192 25.5818 11.0052 25.621C10.9912 25.6607 11.0061 25.705 11.0412 25.7275C12.7317 26.8219 14.6864 27.4001 16.6943 27.4001C23.2619 27.4001 27.1865 22.0149 27.1865 16.8088C27.1865 16.6638 27.1837 16.5196 27.178 16.3757C27.8865 15.8526 28.4947 15.2123 28.9851 14.4711C29.007 14.438 29.0046 14.3939 28.979 14.363Z" fill="#BCBFC2"/>
</svg>
